<svg width="239" height="40" viewBox="0 0 239 40" fill="none" xmlns="http://www.w3.org/2000/svg">
<path d="M2 37.1828L2.00002 2H15.1178C17.5086 2 19.6162 2.44041 21.4408 3.32122C23.2968 4.17057 24.7438 5.42888 25.7819 7.09613C26.82 8.73192 27.3391 10.7295 27.3391 13.0888C27.3391 15.4167 26.8043 17.4142 25.7347 19.0815C24.6966 20.7173 23.2653 21.9756 21.4408 22.8564C19.6162 23.7372 17.5086 24.1776 15.1178 24.1776H8.34672V37.1828H2ZM8.34672 18.5152H15.2122C16.3761 18.5152 17.3828 18.295 18.2321 17.8546C19.0815 17.3828 19.7421 16.7379 20.2139 15.92C20.6858 15.1021 20.9217 14.1584 20.9217 13.0888C20.9217 11.9878 20.6858 11.0441 20.2139 10.2576C19.7421 9.43972 19.0815 8.81057 18.2321 8.37016C17.3828 7.8983 16.3761 7.66236 15.2122 7.66236L8.27608 7.68129L8.34672 18.5152Z" fill="#0B0B0C"/>
<path d="M153.355 37.1966V11.5272H159.159V15.1763C159.771 13.7966 160.53 12.9687 161.472 12.3765C162.738 11.5272 164.303 11.52 166.096 11.52H167.606V16.7177H165.388C163.626 16.7177 162.211 17.2682 161.141 18.3692C160.072 19.4388 159.537 20.9487 159.537 22.8991V37.1966H153.355Z" fill="#EA580C"/>
<path d="M203.831 37.1682V17.0196H199.301V11.5201H203.831V10.6495C203.831 8.6991 204.224 7.04758 205.01 5.6949C205.828 4.31077 206.804 3.41352 208.251 2.69C209.698 1.96647 211.58 2.01028 213.551 2.01027C213.929 2.01027 214.055 2.01002 214.508 2.01014C214.961 2.01027 215.65 2.01014 215.995 2.01014V6.96712C215.65 6.96712 215.306 6.96712 214.99 6.96712C214.754 6.96712 214.56 6.96712 214.34 6.96712C212.96 6.96712 211.9 7.18914 211.145 7.81829C210.39 8.41598 210.012 9.35971 210.012 10.6495V11.5201H215.995V17.0196H210.012V37.1682H203.831Z" fill="#EA580C"/>
<path d="M233.929 37.1826C231.035 37.1826 228.807 36.6042 227.203 35.0314C225.63 33.427 224.844 31.1778 224.844 28.2837V16.959H220.408L220.408 11.5199H220.88C222.138 11.5199 223.114 11.1079 223.806 10.4473C224.498 9.78667 224.844 8.82721 224.844 7.56891V6.9668L231.025 6.9668V11.5199H236.923V16.959H231.025V27.9534C231.025 28.8028 231.167 29.5263 231.45 30.124C231.764 30.7217 232.236 31.1778 232.865 31.4924C233.526 31.807 234.36 31.9642 235.366 31.9642C235.587 31.9642 235.792 31.9642 236.137 31.9642C236.482 31.9642 236.62 31.9642 237.018 31.9642V37.1826C236.551 37.1826 236.137 37.1826 235.516 37.1826C234.895 37.1826 234.401 37.1826 233.929 37.1826Z" fill="#EA580C"/>
<path d="M54.7061 37.1831H48.6211V35.2017C46.6498 36.4548 44.3154 37.183 41.8105 37.1831C34.7605 37.1831 29.0449 31.4376 29.0449 24.3511C29.0452 17.2647 34.7607 11.52 41.8105 11.52C44.3152 11.5201 46.6499 12.2477 48.6211 13.5005V11.52H54.7061V37.1831ZM41.8115 16.811C38.0492 16.811 34.9992 20.187 34.999 24.3511C34.999 28.5153 38.0491 31.8911 41.8115 31.8911C45.5348 31.8908 48.5589 28.5846 48.6211 24.48V24.2212C48.5582 20.1172 45.5344 16.8114 41.8115 16.811Z" fill="#0B0B0C"/>
<path d="M194.884 37.1831H188.799V35.2007C186.827 36.4542 184.493 37.183 181.987 37.1831C174.937 37.1829 169.223 31.4375 169.223 24.3511C169.223 17.2648 174.938 11.5202 181.987 11.52C184.492 11.5201 186.827 12.2483 188.799 13.5015V11.52H194.884V37.1831ZM181.985 16.811C178.223 16.811 175.173 20.187 175.173 24.3511C175.173 28.5153 178.223 31.8911 181.985 31.8911C185.748 31.8908 188.798 28.5151 188.798 24.3511C188.798 20.1872 185.747 16.8114 181.985 16.811Z" fill="#EA580C"/>
<path d="M71.8857 11.52C77.3614 11.5201 82.0318 14.9859 83.8447 19.854H77.0566C75.8149 18.0076 73.8282 16.8112 71.5889 16.811C67.8265 16.811 64.7766 20.187 64.7764 24.3511C64.7764 28.5153 67.8264 31.8911 71.5889 31.8911C73.828 31.8909 75.8149 30.6952 77.0566 28.8491H83.8447C82.0317 33.7172 77.3613 37.1831 71.8857 37.1831C64.8359 37.1828 59.1211 31.4375 59.1211 24.3511C59.1213 17.2649 64.8361 11.5203 71.8857 11.52Z" fill="#0B0B0C"/>
<path d="M132.517 2C139.355 2.00031 145.296 5.85559 148.312 11.5205H140.988C138.896 8.96719 135.876 7.36148 132.513 7.36133C126.195 7.36144 121.074 13.0197 121.074 20C121.074 26.9803 126.195 32.6386 132.513 32.6387C136.222 32.6385 139.517 30.687 141.606 27.6631H148.722C145.858 33.7713 139.679 37.9997 132.517 38C122.627 38 114.609 29.941 114.609 20C114.609 10.0589 122.627 2 132.517 2Z" fill="#EA580C"/>
<path d="M102.339 21.8325L112.013 37.1685H104.935L97.7373 25.7661L94.4121 29.3354V37.1685H88.2305V11.52H94.4121V21.6743L104.111 11.52H111.804L102.339 21.8325Z" fill="#0B0B0C"/>
</svg>
